<svg width="30" height="30" viewBox="0 0 30 30" fill="none" xmlns="http://www.w3.org/2000/svg">
<g clip-path="url(#clip0_38_39)">
<path d="M12.1289 15.001C12.1289 16.5867 13.4143 17.8721 15 17.8721C16.5857 17.8721 17.8711 16.5867 17.8711 15.001C17.8711 13.4153 16.5857 12.1299 15 12.1299C13.4143 12.1299 12.1289 13.4153 12.1289 15.001Z" fill="#999999"/>
<path d="M8.28558 9.92088C8.4236 9.54689 8.64378 9.20837 8.92989 8.93051C9.20775 8.64441 9.54604 8.42422 9.92026 8.28621C10.2238 8.16833 10.6797 8.02803 11.5195 7.98981C12.4279 7.94838 12.7003 7.93945 15.0001 7.93945C17.3001 7.93945 17.5725 7.94815 18.4807 7.98958C19.3204 8.02803 19.7766 8.16833 20.0799 8.28621C20.4541 8.42422 20.7926 8.64441 21.0702 8.93051C21.3563 9.20837 21.5765 9.54666 21.7148 9.92088C21.8326 10.2244 21.9729 10.6805 22.0112 11.5203C22.0526 12.4285 22.0615 12.7009 22.0615 15.0009C22.0615 17.3007 22.0526 17.5731 22.0112 18.4815C21.9729 19.3213 21.8326 19.7772 21.7148 20.0807C21.5765 20.4549 21.3566 20.7932 21.0705 21.0711C20.7926 21.3572 20.4543 21.5774 20.0801 21.7154C19.7766 21.8335 19.3204 21.9738 18.4807 22.012C17.5725 22.0535 17.3003 22.0621 15.0003 22.0621C12.7 22.0621 12.4277 22.0535 11.5197 22.012C10.6799 21.9738 10.2238 21.8335 9.92026 21.7154C9.16907 21.4256 8.57535 20.8319 8.28558 20.0807C8.16771 19.7772 8.0274 19.3213 7.98895 18.4815C7.94753 17.5731 7.93883 17.3007 7.93883 15.0009C7.93883 12.7009 7.94753 12.4285 7.98895 11.5203C8.02718 10.6805 8.16748 10.2244 8.28558 9.92088ZM15.0001 19.4236C17.4429 19.4236 19.4232 17.4435 19.4232 15.0007C19.4232 12.5578 17.4429 10.5778 15.0001 10.5778C12.5574 10.5778 10.5771 12.5578 10.5771 15.0007C10.5771 17.4435 12.5574 19.4236 15.0001 19.4236ZM10.4023 11.4365C10.9731 11.4365 11.4359 10.9737 11.4359 10.4029C11.4359 9.83208 10.9731 9.36928 10.4023 9.36928C9.83145 9.36928 9.36865 9.83208 9.36865 10.4029C9.36888 10.9737 9.83145 11.4365 10.4023 11.4365Z" fill="#999999"/>
<path d="M15 0.000976562C23.283 0.000976562 30 6.71797 30 15.001C30 23.284 23.283 30.001 15 30.001C6.717 30.001 0 23.284 0 15.001C0 6.71797 6.717 0.000976562 15 0.000976562ZM6.43867 18.5521C6.48033 19.469 6.62613 20.095 6.83899 20.6429C7.28645 21.7999 8.20107 22.7145 9.35806 23.162C9.90578 23.3748 10.532 23.5204 11.4487 23.5623C12.3672 23.6042 12.6606 23.6143 14.9998 23.6143C17.3392 23.6143 17.6324 23.6042 18.5511 23.5623C19.4678 23.5204 20.094 23.3748 20.6417 23.162C21.2167 22.9457 21.7371 22.6067 22.1674 22.1684C22.6055 21.7383 22.9445 21.2176 23.1608 20.6429C23.3736 20.0952 23.5194 19.469 23.5611 18.5523C23.6034 17.6336 23.6133 17.3401 23.6133 15.001C23.6133 12.6618 23.6034 12.3684 23.5613 11.4499C23.5197 10.533 23.3741 9.90698 23.1612 9.35904C22.9449 8.78432 22.6057 8.26361 22.1674 7.83354C21.7374 7.39523 21.2167 7.05626 20.6419 6.83997C20.094 6.62711 19.468 6.48154 18.5511 6.43965C17.6326 6.39777 17.3392 6.3877 15 6.3877C12.6608 6.3877 12.3674 6.39777 11.4489 6.43988C10.532 6.48154 9.90601 6.62711 9.35806 6.83974C8.78334 7.05603 8.26263 7.39523 7.83234 7.83354C7.39426 8.26384 7.05505 8.78432 6.83899 9.35904C6.6259 9.90698 6.48033 10.533 6.43845 11.4499C6.39656 12.3684 6.38672 12.6618 6.38672 15.001C6.38672 17.3401 6.39656 17.6336 6.43867 18.5521Z" fill="#999999"/>
</g>
<defs>
<clipPath id="clip0_38_39">
<rect width="30" height="30" fill="white" transform="matrix(-1 0 0 1 30 0.000976562)"/>
</clipPath>
</defs>
</svg>
