<svg width="30" height="30" viewBox="0 0 30 30" fill="none" xmlns="http://www.w3.org/2000/svg">
<path d="M15 0.000976562C6.74999 0.000976562 0 6.76303 0 15.0913C0 22.6215 5.48999 28.8715 12.66 30.001V19.4588H8.84999V15.0913H12.66V11.763C12.66 7.98291 14.895 5.90459 18.33 5.90459C19.965 5.90459 21.675 6.19074 21.675 6.19074V9.91062H19.785C17.925 9.91062 17.34 11.0703 17.34 12.26V15.0913H21.51L20.835 19.4588H17.34V30.001C20.8746 29.4405 24.0933 27.6298 26.4149 24.8956C28.7364 22.1615 30.008 18.6842 30 15.0913C30 6.76303 23.25 0.000976562 15 0.000976562Z" fill="#999999"/>
</svg>
