<svg width="30" height="30" viewBox="0 0 30 30" fill="none" xmlns="http://www.w3.org/2000/svg">
<path d="M15 0.000976562C6.71601 0.000976562 0 6.71668 0 15.001C0 23.2853 6.71601 30.001 15 30.001C23.284 30.001 30 23.2853 30 15.001C30 6.71668 23.284 0.000976562 15 0.000976562ZM22.6088 16.6233C23.3079 17.3061 24.0476 17.9488 24.6752 18.7023C24.9532 19.0356 25.2153 19.3802 25.4148 19.7678C25.6996 20.3206 25.4425 20.9267 24.9477 20.9595L21.8747 20.9589C21.081 21.0246 20.4494 20.7045 19.9169 20.1619C19.4919 19.7295 19.0975 19.2676 18.6881 18.8204C18.5208 18.6369 18.3447 18.4641 18.1347 18.3281C17.7158 18.0556 17.3518 18.1391 17.1118 18.5767C16.8672 19.0221 16.8114 19.5156 16.788 20.0112C16.7546 20.7358 16.5361 20.9252 15.809 20.9592C14.2554 21.032 12.7814 20.7963 11.4114 20.013C10.2028 19.3222 9.26731 18.3472 8.45217 17.2432C6.86486 15.0912 5.64921 12.7293 4.55693 10.2995C4.3111 9.75228 4.49095 9.45949 5.09463 9.44814C6.0976 9.4288 7.10056 9.43126 8.10353 9.44722C8.51171 9.45366 8.78179 9.68722 8.93862 10.0724C9.48061 11.4059 10.1451 12.6746 10.9777 13.8513C11.1996 14.1647 11.4261 14.4771 11.7486 14.6984C12.1047 14.9427 12.376 14.8619 12.5438 14.4645C12.6513 14.2119 12.6976 13.9418 12.7209 13.6712C12.8007 12.744 12.8102 11.8171 12.6721 10.8937C12.5862 10.3158 12.2612 9.94256 11.6851 9.8333C11.3917 9.77775 11.4347 9.66911 11.5774 9.50154C11.8251 9.21182 12.0571 9.03259 12.5208 9.03259L15.9928 9.03197C16.5401 9.13939 16.6628 9.38492 16.7371 9.93612L16.7402 13.7945C16.7337 14.0078 16.8473 14.6401 17.2303 14.7797C17.5372 14.881 17.7397 14.6348 17.9233 14.4406C18.7559 13.557 19.3492 12.5141 19.8804 11.4347C20.1149 10.9587 20.3171 10.4661 20.5136 9.97264C20.6596 9.60773 20.8868 9.42819 21.2986 9.43433L24.642 9.43832C24.7406 9.43832 24.8406 9.43924 24.9382 9.45612C25.5017 9.55249 25.6561 9.79494 25.4817 10.3446C25.2074 11.2082 24.6743 11.9276 24.1531 12.6489C23.5946 13.421 22.9989 14.1662 22.4458 14.9417C21.9376 15.6507 21.9778 16.0076 22.6088 16.6233Z" fill="#999999"/>
</svg>
